# xmcd CD database file
#
# Track frame offsets:
#	150
#	12289
#	43821
#	70017
#	77357
#	112743
#	144845
#	155081
#	197872
#	222183
#
# Disc length: 3147 seconds
#
# Revision: 0
# Processed by: cddbd v1.5.2PL0 Copyright (c) Steve Scherf et al.
# Submitted via: CDex 1.79
#
DISCID=7d0c490a
DTITLE=Alan Benzie Trio - Traveller's Tale
DYEAR=1900
DGENRE=Jazz
TTITLE0=Hazy Dawns
TTITLE1=Glass
TTITLE2=From A to B
TTITLE3=Leaf Skeletons (Music Box Memory)
TTITLE4=Frog Town On The Hill
TTITLE5=Old Haunts
TTITLE6=Western Embers
TTITLE7=A Wandering Mist
TTITLE8=Midnight Cafe
TTITLE9=Stony Shore
EXTD=
EXTT0=
EXTT1=
EXTT2=
EXTT3=
EXTT4=
EXTT5=
EXTT6=
EXTT7=
EXTT8=
EXTT9=
PLAYORDER=
